
      <svg data-logo="logo" xmlns="http://www.w3.org/2000/svg" viewBox="0 0 223 45">
        <g id="logogram" transform="translate(0, 1) rotate(0) "><path d="M37.5 27.0752C37.5 20.4478 32.1274 15.0752 25.5 15.0752H15.5V27.0752H25.5V42.0752H37.5V27.0752Z" fill="#FF4D00"/><path d="M0.5 28.0752C0.500001 35.8072 6.76801 42.0752 14.5 42.0752L22.5 42.0752L22.5 30.0752H14.5C13.3954 30.0752 12.5 29.1798 12.5 28.0752V27.0752L0.5 27.0752L0.5 28.0752Z" fill="#FF4D00"/><path d="M25.5 0.0751953C40.4117 0.0751953 52.5 12.1635 52.5 27.0752V42.0752H40.5V27.0752C40.5 18.7909 33.7843 12.0752 25.5 12.0752H14.5C13.3954 12.0752 12.5 12.9706 12.5 14.0752V15.0752H0.500001V14.0752C0.500002 6.34321 6.76802 0.0751953 14.5 0.0751953H25.5Z" fill="#FF4D00"/></g>
        <g id="logotype" transform="translate(59, 9.5)"><path fill="#ffffff" d="M19.06 26L8.31 26L8.31 0.54L18.41 0.54Q21.21 0.54 23.08 1.38Q24.95 2.23 25.88 3.70Q26.82 5.17 26.82 7.08L26.82 7.08Q26.82 8.59 26.22 9.70Q25.62 10.82 24.59 11.53Q23.55 12.24 22.24 12.55L22.24 12.55L22.24 12.81Q23.67 12.86 24.94 13.62Q26.22 14.38 27.01 15.74Q27.81 17.10 27.81 18.99L27.81 18.99Q27.81 20.99 26.82 22.58Q25.82 24.17 23.88 25.09Q21.94 26 19.06 26L19.06 26ZM13.52 14.81L13.52 21.71L18.03 21.71Q20.32 21.71 21.38 20.82Q22.44 19.93 22.44 18.50L22.44 18.50Q22.44 17.40 21.92 16.57Q21.40 15.75 20.44 15.28Q19.48 14.81 18.17 14.81L18.17 14.81L13.52 14.81ZM13.52 4.79L13.52 11.23L17.64 11.23Q18.75 11.23 19.64 10.83Q20.53 10.43 21.03 9.69Q21.53 8.94 21.53 7.92L21.53 7.92Q21.53 6.53 20.55 5.66Q19.57 4.79 17.74 4.79L17.74 4.79L13.52 4.79ZM40.37 26.34L40.37 26.34Q37.00 26.34 34.31 24.80Q31.62 23.27 30.05 20.34Q28.49 17.42 28.49 13.29L28.49 13.29Q28.49 9.13 30.05 6.20Q31.62 3.27 34.31 1.73Q37.00 0.19 40.37 0.19L40.37 0.19Q43.75 0.19 46.43 1.73Q49.12 3.27 50.68 6.20Q52.24 9.13 52.24 13.29L52.24 13.29Q52.24 17.42 50.68 20.34Q49.12 23.27 46.43 24.80Q43.75 26.34 40.37 26.34ZM40.37 21.71L40.37 21.71Q42.35 21.71 43.83 20.74Q45.30 19.78 46.12 17.89Q46.95 16.00 46.95 13.29L46.95 13.29Q46.95 10.53 46.12 8.65Q45.30 6.76 43.83 5.79Q42.35 4.83 40.37 4.83L40.37 4.83Q38.40 4.83 36.91 5.80Q35.43 6.77 34.61 8.66Q33.79 10.55 33.79 13.29L33.79 13.29Q33.79 16.00 34.61 17.88Q35.43 19.76 36.91 20.74Q38.40 21.71 40.37 21.71ZM59.09 26L53.88 26L53.88 0.54L63.81 0.54Q66.72 0.54 68.75 1.64Q70.78 2.74 71.85 4.68Q72.92 6.62 72.92 9.13L72.92 9.13Q72.92 11.66 71.83 13.58Q70.75 15.51 68.69 16.59Q66.63 17.68 63.69 17.68L63.69 17.68L57.30 17.68L57.30 13.47L62.85 13.47Q64.46 13.47 65.49 12.92Q66.53 12.36 67.03 11.39Q67.54 10.41 67.54 9.13L67.54 9.13Q67.54 7.85 67.03 6.88Q66.53 5.90 65.49 5.37Q64.44 4.84 62.84 4.84L62.84 4.84L59.09 4.84L59.09 26ZM83.22 26L83.22 26L76.64 26L76.64 21.51L82.98 21.51Q85.44 21.51 87.11 20.63Q88.78 19.76 89.61 17.93Q90.45 16.10 90.45 13.25L90.45 13.25Q90.45 10.41 89.61 8.59Q88.76 6.77 87.11 5.90Q85.46 5.03 83.02 5.03L83.02 5.03L76.52 5.03L76.52 0.54L83.33 0.54Q87.15 0.54 89.91 2.07Q92.67 3.60 94.16 6.44Q95.65 9.29 95.65 13.25L95.65 13.25Q95.65 17.23 94.16 20.09Q92.67 22.94 89.89 24.47Q87.10 26 83.22 26ZM74.28 0.54L79.50 0.54L79.50 26L74.28 26L74.28 0.54ZM101.58 26L95.82 26L104.51 0.54L111.35 0.54L120.27 26L114.48 26L110.39 13.71Q109.66 11.34 108.90 8.51Q108.14 5.68 107.30 2.33L107.30 2.33L108.43 2.33Q107.63 5.70 106.92 8.54Q106.21 11.39 105.51 13.71L105.51 13.71L101.58 26ZM114.84 20.09L101.25 20.09L101.25 16.00L114.84 16.00L114.84 20.09ZM130.47 26.38L130.47 26.38Q127.41 26.38 125.15 25.44Q122.88 24.50 121.62 22.65Q120.35 20.80 120.29 18.10L120.29 18.10L125.36 18.10Q125.46 19.39 126.13 20.25Q126.80 21.11 127.91 21.54Q129.02 21.97 130.42 21.97L130.42 21.97Q131.82 21.97 132.86 21.57Q133.89 21.16 134.47 20.43Q135.05 19.69 135.05 18.72L135.05 18.72Q135.05 17.85 134.53 17.26Q134.01 16.67 133.04 16.24Q132.06 15.81 130.66 15.49L130.66 15.49L127.86 14.79Q124.63 14.00 122.80 12.32Q120.97 10.64 120.97 7.87L120.97 7.87Q120.97 5.56 122.21 3.83Q123.45 2.11 125.61 1.15Q127.77 0.19 130.54 0.19L130.54 0.19Q133.36 0.19 135.46 1.16Q137.56 2.13 138.74 3.84Q139.92 5.56 139.96 7.80L139.96 7.80L134.92 7.80Q134.78 6.26 133.61 5.42Q132.44 4.59 130.49 4.59L130.49 4.59Q129.17 4.59 128.23 4.96Q127.29 5.34 126.80 6.00Q126.30 6.67 126.30 7.53L126.30 7.53Q126.30 8.47 126.87 9.09Q127.45 9.71 128.38 10.10Q129.31 10.48 130.39 10.74L130.39 10.74L132.69 11.30Q134.30 11.66 135.68 12.28Q137.07 12.89 138.11 13.79Q139.15 14.69 139.73 15.92Q140.30 17.15 140.30 18.75L140.30 18.75Q140.30 21.06 139.14 22.78Q137.97 24.50 135.77 25.44Q133.57 26.38 130.47 26.38ZM147.00 26L141.78 26L141.78 0.54L147.00 0.54L147.00 10.82L158.09 10.82L158.09 0.54L163.32 0.54L163.32 26L158.09 26L158.09 15.15L147.00 15.15L147.00 26Z"/></g>
        
      </svg>
    